<?xml version="1.0" standalone="no"?>
<!DOCTYPE svg PUBLIC "-//W3C//DTD SVG 20010904//EN"
 "http://www.w3.org/TR/2001/REC-SVG-20010904/DTD/svg10.dtd">
<svg version="1.0" xmlns="http://www.w3.org/2000/svg"
 width="256.000000pt" height="256.000000pt" viewBox="0 0 256.000000 256.000000"
 preserveAspectRatio="xMidYMid meet">
<metadata>
Created by potrace 1.11, written by Peter Selinger 2001-2013
</metadata>
<g transform="translate(0.000000,256.000000) scale(0.100000,-0.100000)"
fill="#000000" stroke="none">
<path d="M1180 2554 c-181 -21 -341 -66 -474 -134 -313 -160 -540 -429 -644
-760 -42 -135 -56 -226 -56 -380 0 -158 14 -246 60 -390 127 -397 436 -703
834 -828 135 -42 226 -56 380 -56 158 0 246 14 390 60 397 127 703 436 828
834 42 135 56 226 56 380 0 158 -14 246 -60 390 -143 445 -517 777 -975 865
-78 15 -278 26 -339 19z m44 -266 c5 -10 7 -10 12 0 7 14 74 17 74 2 0 -5 11
-10 25 -10 14 0 25 -4 25 -10 0 -5 9 -10 20 -10 11 0 20 -4 20 -10 0 -5 8 -10
18 -10 27 0 96 -27 100 -39 2 -6 17 -11 33 -11 16 0 29 -4 29 -10 0 -5 7 -10
15 -10 8 0 15 -3 15 -7 0 -5 18 -17 40 -27 22 -11 40 -23 40 -28 0 -4 9 -8 20
-8 15 0 22 -9 27 -30 3 -16 9 -30 14 -30 4 0 20 -11 34 -25 29 -30 36 -104 10
-125 -8 -7 -15 -28 -15 -46 0 -19 -4 -34 -10 -34 -5 0 -10 -16 -10 -35 0 -19
-4 -35 -10 -35 -5 0 -10 -18 -10 -41 0 -39 -17 -69 -39 -69 -6 0 -11 -9 -11
-20 0 -11 -4 -20 -10 -20 -5 0 -10 -11 -10 -25 0 -14 -4 -25 -9 -25 -5 0 -16
-16 -25 -35 -9 -19 -21 -35 -26 -35 -6 0 -10 -9 -10 -20 0 -11 -4 -20 -10 -20
-5 0 -10 -5 -10 -10 0 -6 -9 -20 -20 -32 -11 -12 -20 -28 -20 -35 0 -7 -7 -13
-15 -13 -8 0 -15 -4 -15 -10 0 -5 -4 -10 -10 -10 -5 0 -10 9 -10 20 0 11 5 20
10 20 6 0 10 9 10 20 0 11 -4 20 -10 20 -5 0 -10 -4 -10 -9 0 -9 -30 -46 -92
-112 -14 -16 -33 -29 -42 -29 -9 0 -16 -4 -16 -10 0 -5 -7 -10 -15 -10 -8 0
-15 5 -15 10 0 6 5 10 10 10 6 0 10 5 10 10 0 6 -9 10 -20 10 -11 0 -20 -4
-20 -10 0 -5 -9 -10 -19 -10 -16 0 -21 -9 -26 -42 -12 -89 -6 -345 21 -885 5
-89 3 -103 -10 -103 -13 0 -16 14 -16 75 0 43 -4 75 -10 75 -6 0 -10 45 -10
115 0 114 0 115 -24 115 -23 0 -23 2 -30 133 -4 72 -9 204 -12 292 -3 88 -10
162 -15 163 -5 2 -9 10 -9 18 0 10 -14 14 -55 14 -54 0 -55 0 -55 29 l0 30 55
-6 55 -6 0 92 c0 50 -4 91 -9 91 -5 0 -12 42 -15 93 -6 118 -27 267 -38 267
-4 0 -8 31 -8 69 0 39 -4 73 -10 76 -5 3 -10 17 -10 31 0 19 -5 24 -26 24 -28
0 -84 -49 -84 -74 0 -23 -37 -20 -45 3 -7 23 14 71 32 71 7 0 13 9 13 21 0 12
14 34 30 49 34 32 37 40 14 40 -15 0 -44 23 -44 35 0 12 28 35 43 35 8 0 17 7
21 15 3 8 15 15 26 15 11 0 20 5 20 10 0 6 7 10 15 10 8 0 15 5 15 10 0 6 9
10 20 10 11 0 20 5 20 10 0 6 16 10 35 10 19 0 35 5 35 10 0 14 37 12 44 -2z"/>
<path d="M1380 2090 c0 -5 -20 -10 -45 -10 -43 0 -45 -1 -45 -29 0 -17 -4 -32
-9 -35 -11 -7 -21 -156 -26 -431 -3 -126 -7 -242 -10 -257 -4 -26 -2 -28 26
-28 34 0 49 12 73 58 9 18 25 38 36 45 11 6 20 20 20 29 0 10 5 18 10 18 6 0
10 9 10 20 0 11 5 20 10 20 6 0 10 5 10 11 0 14 25 39 39 39 6 0 11 9 11 20 0
11 5 20 10 20 6 0 10 7 10 15 0 8 4 15 9 15 5 0 12 9 16 19 3 11 24 38 45 60
22 23 40 47 40 54 0 7 6 19 12 25 9 9 12 47 11 122 -1 113 -10 140 -47 140 -9
0 -16 5 -16 10 0 6 -11 10 -24 10 -14 0 -31 7 -40 15 -8 8 -28 15 -45 15 -17
0 -31 5 -31 10 0 6 -13 10 -30 10 -16 0 -30 -4 -30 -10z"/>
<path d="M1180 2008 c0 -32 3 -39 10 -28 13 20 13 70 0 70 -5 0 -10 -19 -10
-42z"/>
<path d="M1470 1460 c0 -5 5 -10 10 -10 6 0 10 5 10 10 0 6 -4 10 -10 10 -5 0
-10 -4 -10 -10z"/>
<path d="M1400 1370 c0 -5 5 -10 10 -10 6 0 10 5 10 10 0 6 -4 10 -10 10 -5 0
-10 -4 -10 -10z"/>
<path d="M1200 690 c0 -11 5 -20 10 -20 6 0 10 9 10 20 0 11 -4 20 -10 20 -5
0 -10 -9 -10 -20z"/>
</g>
</svg>
